<svg width="19" height="13" viewBox="0 0 19 13" fill="none" xmlns="http://www.w3.org/2000/svg">
<path d="M0.256487 7.13933L5.86071 12.7436C6.20264 13.0855 6.75718 13.0855 7.0991 12.7436C7.4411 12.4016 7.4411 11.8472 7.0991 11.5052L2.98974 7.39579H17.9568C18.4404 7.39579 18.8325 7.00371 18.8325 6.52013C18.8325 6.03663 18.4404 5.64447 17.9568 5.64447H2.98974L7.09896 1.53511C7.44096 1.19311 7.44096 0.638709 7.09896 0.296712C6.92804 0.125853 6.70387 0.0402489 6.47977 0.0402489C6.25567 0.0402489 6.03157 0.125853 5.86057 0.296712L0.256487 5.90094C-0.0855103 6.24293 -0.0855103 6.79733 0.256487 7.13933Z" fill="#3C3C3B"/>
</svg>
